<svg width="64" height="120" viewBox="0 0 64 120" fill="none" xmlns="http://www.w3.org/2000/svg">
<path d="M31.7887 23.3842C38.2513 23.3842 43.4882 18.1529 43.4882 11.6943C43.4882 5.23135 38.2511 0 31.7887 0C25.3295 0 20.0976 5.23135 20.0976 11.6943C20.0976 18.1529 25.3295 23.3842 31.7887 23.3842Z" fill="#47B1FD"/>
<path d="M63.1272 65.1618L46.4482 28.6274C45.5474 26.6384 43.5062 25.7791 41.4371 25.7791C34.2345 25.7791 30.0568 25.7765 22.1435 25.7765C20.0744 25.7765 18.0337 26.6358 17.1298 28.6274L0.454862 65.1618C-0.695762 67.6755 0.412488 70.6421 2.92326 71.789C3.59767 72.0946 4.30401 72.2423 4.99612 72.2423C6.89661 72.2423 8.71381 71.1552 9.55045 69.3154L17.6138 51.6462V70.6799C17.6138 70.7129 17.5967 70.742 17.5967 70.7753V113.913C17.5967 117.229 20.2833 119.915 23.5971 119.915C26.912 119.915 29.5974 117.229 29.5974 113.913V78.1504H33.9791V113.913C33.9791 117.229 36.6648 119.915 39.9792 119.915C43.2929 119.915 45.9795 117.229 45.9795 113.913V70.7753C45.9795 70.7489 45.9668 70.7301 45.9668 70.7036V51.6462L54.031 69.3154C54.8665 71.1549 56.6848 72.2423 58.5824 72.2423C59.2754 72.2423 59.9838 72.0946 60.6593 71.789C63.1695 70.6421 64.2766 67.6755 63.1272 65.1618Z" fill="#47B1FD"/>
</svg>
