<?xml version="1.0" encoding="utf-8"?>
<!-- Generator: Adobe Illustrator 26.0.3, SVG Export Plug-In . SVG Version: 6.00 Build 0)  -->
<svg version="1.1" id="Layer_1" xmlns="http://www.w3.org/2000/svg" xmlns:xlink="http://www.w3.org/1999/xlink" x="0px" y="0px"
	 viewBox="0 0 583.4 205.1" style="enable-background:new 0 0 583.4 205.1;" xml:space="preserve">
<style type="text/css">
	.st0{fill:url(#SVGID_1_);}
	.st1{fill:#1A171B;}
	.st2{fill:#0055BF;}
	.st3{fill:#FFD700;}
	.st4{opacity:0.5;fill:#7F7F7F;enable-background:new    ;}
</style>
<linearGradient id="SVGID_1_" gradientUnits="userSpaceOnUse" x1="110.5921" y1="61.6882" x2="94.5921" y2="133.6882">
	<stop  offset="0" style="stop-color:#AAD72C"/>
	<stop  offset="1" style="stop-color:#45AFE7"/>
</linearGradient>
<path class="st0" d="M30.2,27.8C47.9,13.4,69.9,5.3,92.8,5c5.6-0.1,11.2,0.3,16.7,1.2c16.6,2.5,32.3,9.2,45.6,19.4
	c8.8,6.7,16.4,14.9,22.4,24.1c6.1,9.2,10.5,19.3,13.2,30c2.7,10.6,3.6,21.5,2.6,32.4c-2.8,32.8-22.1,61.9-51.2,77.2
	c-18.9,9.9-40.6,13.1-61.5,9.1C38.3,190.7,7,154.8,5,111.8c-0.3-4.4,3-8.1,7.3-8.5s8.1,3,8.5,7.3l0,0v0.1
	c1.5,16.8,8.7,32.6,20.4,44.7c11.4,12,26.5,19.8,42.9,22.1c4,0.6,8.1,0.8,12.2,0.7c4-0.1,8-0.6,12-1.4c7.9-1.6,15.4-4.4,22.4-8.5
	c13.8-8.1,24.5-20.5,30.4-35.4c2.8-7.3,4.4-15,4.7-22.8c0.1-3.9,0-7.8-0.5-11.6c-0.5-3.8-1.3-7.6-2.4-11.3
	c-2.2-7.3-5.7-14.2-10.3-20.4c-9-12.3-21.8-21.2-36.5-25.3c-3.6-1-7.3-1.6-11-2S97.7,39,94,39.3c-7.3,0.5-14.6,2.2-21.3,5
	s-12.9,6.8-18.3,11.6C46.6,63,34.9,62.4,28,54.8s-6.3-19.4,1.4-26.2L30,28L30.2,27.8z"/>
<path class="st1" d="M235.9,45.4v8h0.2c1.9-3.2,4.7-5.8,8-7.4c3.3-1.6,7-2.3,10.6-2.3c4.4-0.1,8.8,0.8,12.7,2.8
	c3.5,1.8,6.5,4.3,8.8,7.4c2.4,3.2,4.2,6.8,5.2,10.7c1.1,4.2,1.7,8.4,1.7,12.8c0,4.1-0.6,8.2-1.7,12.1c-1,3.7-2.8,7.2-5.1,10.3
	c-2.3,3-5.2,5.4-8.6,7.1c-3.7,1.8-7.8,2.7-12,2.7c-3.7,0-7.4-0.8-10.8-2.4c-3.3-1.6-6-4-8.1-7h-0.2v29.6h-17.2V45.4H235.9z
	 M258.2,95c1.9-1.1,3.4-2.6,4.6-4.4c1.2-1.9,2.1-4.1,2.5-6.3c0.5-2.4,0.7-4.9,0.7-7.4s-0.3-5-0.8-7.4c-0.5-2.3-1.4-4.5-2.6-6.5
	c-1.2-1.9-2.8-3.4-4.7-4.6c-2.1-1.2-4.5-1.8-7-1.8c-2.5-0.1-4.9,0.5-7.1,1.8c-1.9,1.2-3.4,2.7-4.5,4.6c-1.2,2-2.1,4.1-2.5,6.4
	c-0.5,2.5-0.7,5-0.7,7.5s0.3,5,0.8,7.4c0.5,2.3,1.3,4.4,2.5,6.3c1.2,1.8,2.8,3.3,4.7,4.4C248.5,97.3,253.8,97.3,258.2,95L258.2,95z"
	/>
<path class="st1" d="M291.5,64.7c0.1-3.5,1.1-7,3-10c1.7-2.6,4.1-4.8,6.8-6.4c2.9-1.7,6-2.8,9.3-3.4c3.4-0.7,6.9-1,10.3-1
	c3.2,0,6.4,0.2,9.6,0.7c3.1,0.4,6,1.3,8.8,2.6c2.6,1.2,4.8,3.1,6.5,5.4c1.8,2.7,2.7,5.9,2.5,9.1v32.6c0,2.7,0.2,5.4,0.5,8.1
	c0.2,2,0.7,4,1.7,5.8h-17.4c-0.3-1-0.6-2-0.8-3c-0.2-1-0.3-2-0.4-3.1c-2.7,2.8-6,4.8-9.7,5.9s-7.5,1.7-11.4,1.7
	c-2.8,0-5.6-0.3-8.4-1.1c-2.5-0.7-4.8-1.8-6.8-3.4c-2-1.5-3.5-3.5-4.5-5.8c-1.2-2.6-1.7-5.5-1.6-8.3c-0.1-3,0.5-6.1,1.9-8.8
	c1.2-2.2,2.8-4.1,4.8-5.5c2.1-1.4,4.4-2.5,6.8-3.1c2.5-0.7,5.1-1.2,7.7-1.6s5.1-0.7,7.6-1c2.2-0.2,4.5-0.6,6.6-1.1
	c1.7-0.4,3.2-1.1,4.6-2.1c1.2-1,1.7-2.5,1.6-4.1c0.1-1.5-0.2-3-0.9-4.4c-0.6-1.1-1.4-1.9-2.4-2.6c-1.1-0.6-2.3-1-3.5-1.2
	c-1.4-0.2-2.9-0.3-4.3-0.3c-3.4,0-6.1,0.7-8,2.2c-1.9,1.4-3.1,3.9-3.4,7.3L291.5,64.7z M331.2,77.4c-0.8,0.7-1.7,1.2-2.7,1.5
	c-1.1,0.4-2.3,0.7-3.5,0.9c-1.2,0.2-2.6,0.4-3.9,0.6s-2.7,0.4-4.1,0.6c-1.3,0.3-2.6,0.6-3.8,1c-1.2,0.4-2.3,0.9-3.3,1.6
	c-0.9,0.7-1.7,1.6-2.2,2.6c-0.6,1.2-0.9,2.6-0.8,4c0,1.3,0.2,2.7,0.8,3.9c0.5,1,1.3,1.9,2.3,2.5s2.2,1.1,3.4,1.3
	c1.3,0.3,2.7,0.4,4,0.4c3.4,0,6-0.6,7.9-1.7c1.7-1,3.1-2.3,4.1-4c0.9-1.5,1.4-3.1,1.6-4.8c0.2-1.3,0.3-2.6,0.3-3.9L331.2,77.4z"/>
<path class="st1" d="M383.6,126.6c-3.3,2.2-7.9,3.3-13.8,3.3c-1.8,0-3.5-0.1-5.3-0.2s-3.5-0.3-5.3-0.4v-14.2l5,0.5
	c1.7,0.2,3.4,0.2,5.1,0.1c2-0.1,3.8-1.1,5-2.7c1.1-1.5,1.7-3.2,1.7-5.1c0-1.3-0.2-2.6-0.7-3.9l-21.9-58.7h18.3l14.2,42.8h0.2
	l13.7-42.8h17.8l-26.1,70.3C389.5,120.8,386.9,124.4,383.6,126.6z"/>
<path class="st1" d="M439.7,21.6V108h-17.2V21.6H439.7z"/>
<path class="st1" d="M451.4,64.7c0.1-3.5,1.1-7,3-10c1.7-2.6,4.1-4.8,6.8-6.4c2.9-1.7,6-2.8,9.3-3.4c3.4-0.7,6.9-1,10.3-1
	c3.2,0,6.4,0.2,9.6,0.7c3.1,0.4,6,1.3,8.8,2.6c2.6,1.2,4.8,3.1,6.5,5.4c1.8,2.7,2.7,5.9,2.5,9.1v32.6c0,2.7,0.2,5.4,0.5,8.1
	c0.2,2,0.7,4,1.7,5.8H493c-0.3-1-0.6-2-0.8-3c-0.2-1-0.3-2-0.4-3.1c-2.7,2.8-6,4.8-9.7,5.9s-7.5,1.7-11.4,1.7
	c-2.8,0-5.6-0.3-8.4-1.1c-2.5-0.7-4.8-1.8-6.8-3.4c-2-1.5-3.5-3.5-4.5-5.8c-1.2-2.6-1.7-5.5-1.6-8.3c-0.1-3,0.5-6.1,1.9-8.8
	c1.2-2.2,2.8-4.1,4.8-5.5c2.1-1.4,4.4-2.5,6.8-3.1c2.5-0.7,5.1-1.2,7.7-1.6s5.1-0.7,7.6-1c2.2-0.2,4.5-0.6,6.7-1.1
	c1.7-0.4,3.2-1.1,4.6-2.1c1.1-1,1.7-2.5,1.5-4.1c0.1-1.5-0.2-3-0.9-4.4c-0.6-1.1-1.4-1.9-2.4-2.6c-1.1-0.6-2.3-1-3.5-1.2
	c-1.4-0.2-2.9-0.3-4.3-0.3c-3.4,0-6.1,0.7-8,2.2c-1.9,1.4-3.1,3.9-3.4,7.3L451.4,64.7z M491,77.4c-0.8,0.7-1.7,1.2-2.7,1.5
	c-1.1,0.4-2.3,0.7-3.5,0.9c-1.2,0.2-2.6,0.4-3.9,0.6s-2.7,0.4-4.1,0.6c-1.3,0.3-2.6,0.6-3.8,1c-1.2,0.4-2.3,0.9-3.3,1.6
	c-0.9,0.7-1.7,1.6-2.2,2.6c-0.6,1.2-0.9,2.6-0.8,4c0,1.3,0.2,2.7,0.8,3.9c0.5,1,1.3,1.9,2.3,2.5s2.2,1.1,3.4,1.3
	c1.3,0.3,2.7,0.4,4,0.4c3.4,0,6-0.6,7.9-1.7c1.7-1,3.1-2.3,4.1-4c0.9-1.5,1.4-3.1,1.6-4.8c0.2-1.3,0.3-2.6,0.3-3.9L491,77.4z"/>
<path class="st1" d="M537.5,21.6V53h0.2c2.1-3.1,5-5.6,8.5-7c3.5-1.5,7.4-2.2,11.2-2.2c6.7,0,13.1,2.9,17.6,7.9
	c2.7,3,4.7,6.5,6,10.2c1.6,4.8,2.4,9.8,2.3,14.8c0.1,5-0.7,10.1-2.3,14.8c-1.3,3.8-3.3,7.2-6,10.2c-4.5,5-10.9,7.8-17.6,7.9
	c-4.2,0.1-8.4-0.7-12.3-2.2c-3.6-1.4-6.5-4-8.2-7.4h-0.2v8h-16.3V21.6H537.5z M565.3,69.1c-0.5-2.3-1.4-4.5-2.7-6.4
	c-1.2-1.8-2.7-3.3-4.5-4.4c-2-1.1-4.3-1.7-6.6-1.6c-2.3-0.1-4.5,0.5-6.5,1.6c-1.9,1.1-3.4,2.6-4.6,4.4c-1.3,2-2.2,4.1-2.7,6.4
	c-0.6,2.5-0.9,5.1-0.8,7.6c0,2.5,0.3,5,0.8,7.5c0.5,2.3,1.4,4.4,2.7,6.4c1.2,1.8,2.7,3.3,4.6,4.4c2,1.1,4.3,1.7,6.5,1.6
	c2.3,0.1,4.6-0.5,6.6-1.6c1.8-1.1,3.4-2.6,4.5-4.4c1.3-2,2.2-4.1,2.7-6.4c0.6-2.5,0.9-5,0.8-7.5C566.2,74.2,565.9,71.6,565.3,69.1z"
	/>
<g>
	<path class="st2" d="M96.3,54.9c-29.1,0-52.8,23.6-52.8,52.8h105.6C149.1,78.6,125.5,54.9,96.3,54.9z"/>
	<path class="st3" d="M96.3,160.5c29.1,0,52.8-23.6,52.8-52.8H43.5C43.5,136.9,67.2,160.5,96.3,160.5z"/>
</g>
<path class="st4" d="M230.5,178.6l7.4-31.3h4.1l0.9,5.2l-7.9,32h-4.5V178.6z M226.7,147.3l6.1,31.3l-0.5,5.9h-5l-8.3-37.2H226.7z
	 M249.6,178.5l6.1-31.2h7.6l-8.2,37.2h-5L249.6,178.5z M244.4,147.3l7.5,31.5l-0.2,5.8h-4.5l-8-32.1l1-5.2H244.4z M275.5,147.3v37.2
	h-7.6v-37.2H275.5z M298.6,147.3v37.2H291v-37.2H298.6z M310.1,147.3v6h-30.4v-6H310.1z M339.3,162.4v6h-19.4v-6H339.3z
	 M322.1,147.3v37.2h-7.7v-37.2H322.1z M344.8,147.3v37.2h-7.6v-37.2H344.8z M385.1,147.3h7.6v24.6c0,2.9-0.6,5.3-1.8,7.2
	c-1.2,2-2.9,3.4-5,4.4s-4.6,1.5-7.4,1.5s-5.3-0.5-7.4-1.5s-3.8-2.5-5.1-4.4c-1.2-2-1.8-4.4-1.8-7.2v-24.6h7.7v24.6
	c0,1.7,0.3,3,0.8,4.1s1.3,1.8,2.3,2.3s2.2,0.7,3.6,0.7s2.6-0.2,3.6-0.7s1.7-1.3,2.3-2.3c0.5-1.1,0.8-2.4,0.8-4.1v-24.6H385.1z
	 M406.7,147.3v37.2H399v-37.2H406.7z M429,147.3l-14.8,18.4l-8.5,9.2l-1.4-7.3l5.8-7.9l9.5-12.4H429z M420.3,184.5l-11-17.2l5.7-4.8
	l14.4,22H420.3z M432.3,147.3h13.9c2.8,0,5.3,0.4,7.3,1.3c2.1,0.9,3.6,2.1,4.8,3.8c1.1,1.7,1.7,3.7,1.7,6.2c0,2-0.3,3.7-1,5.1
	c-0.7,1.4-1.6,2.6-2.8,3.6c-1.2,0.9-2.6,1.7-4.3,2.3l-2.4,1.3h-12.1l-0.1-6h9c1.3,0,2.5-0.2,3.4-0.7s1.6-1.1,2-2
	c0.5-0.9,0.7-1.8,0.7-3s-0.2-2.2-0.7-3.1c-0.4-0.9-1.1-1.5-2-2s-2-0.7-3.4-0.7H440v31.2h-7.7V147.3z M453.2,184.5l-8.5-16.6l8.1-0.1
	l8.6,16.3v0.4L453.2,184.5L453.2,184.5z M481,153.6l-10.1,30.9h-8.2l13.8-37.2h5.2L481,153.6z M489.5,184.5l-10.2-30.9l-0.8-6.4h5.2
	l13.9,37.2L489.5,184.5L489.5,184.5z M489,170.6v6h-19.7v-6H489z M509.3,147.3v37.2h-7.6v-37.2H509.3z M546.8,147.3v37.2h-7.7
	l-15-25v25h-7.7v-37.2h7.7l15,25v-25H546.8z M578.4,178.5v6h-19.8v-6H578.4z M561.1,147.3v37.2h-7.7v-37.2H561.1z M575.8,162.4v5.8
	h-17.2v-5.8H575.8z M578.4,147.3v6h-19.8v-6H578.4z"/>
</svg>
