<svg width="148" height="148" viewBox="0 0 148 148" fill="none" xmlns="http://www.w3.org/2000/svg">
<circle cx="74" cy="74" r="74" fill="#FFF3CD"/>
<path d="M105.433 92.9846L77.6294 44.8193C76.0177 42.0284 71.9821 42.0284 70.3705 44.8193L42.5667 92.9846C40.9551 95.7755 42.9729 99.2739 46.1961 99.2739H101.804C105.027 99.2739 107.045 95.7755 105.433 92.9846ZM74.0392 59.6515C75.8212 59.6515 77.2625 61.1321 77.2101 62.914L76.686 81.2053C76.6467 82.6466 75.4674 83.7866 74.0261 83.7866C72.5848 83.7866 71.4056 82.6335 71.3663 81.2053L70.8553 62.914C70.816 61.1321 72.2442 59.6515 74.0392 59.6515ZM73.9999 92.7357C72.1787 92.7357 70.6981 91.2551 70.6981 89.4338C70.6981 87.6125 72.1787 86.1319 73.9999 86.1319C75.8212 86.1319 77.3018 87.6125 77.3018 89.4338C77.3018 91.2551 75.8212 92.7357 73.9999 92.7357Z" fill="#89690B"/>
</svg>
