<svg width="64" height="120" viewBox="0 0 64 120" fill="none" xmlns="http://www.w3.org/2000/svg">
<path d="M31.792 23.3842C38.2518 23.3842 43.484 18.1529 43.484 11.6943C43.484 5.23135 38.2518 0 31.792 0C25.3294 0 20.0948 5.23135 20.0948 11.6943C20.0948 18.1529 25.3294 23.3842 31.792 23.3842Z" fill="#EC75FF"/>
<path d="M46.4507 28.6278C45.6275 26.819 43.8523 25.7769 41.9875 25.7412L21.583 25.7395C19.7179 25.7772 17.9536 26.819 17.1323 28.6281L0.454497 65.162C-0.695256 67.6756 0.412129 70.6423 2.92232 71.7891C3.59731 72.0947 4.30568 72.2424 4.99837 72.2424C6.89654 72.2424 8.71432 71.1554 9.55038 69.3155L14.7399 57.946L10.221 79.2205C10.0681 79.9372 10.2486 80.6828 10.708 81.2518C11.1705 81.8218 11.8627 82.1514 12.5934 82.1514H17.6018V113.913C17.6018 117.229 20.2879 119.915 23.6025 119.915C26.9165 119.915 29.6029 117.229 29.6029 113.913V82.1517H33.9839V113.913C33.9839 117.229 36.6706 119.915 39.9846 119.915C43.2986 119.915 45.985 117.229 45.985 113.913V82.1517H50.976C51.7065 82.1517 52.3994 81.8221 52.8591 81.2521C53.3205 80.683 53.5019 79.9372 53.3484 79.2207L48.8193 57.8937L54.0309 69.3155C54.8676 71.1551 56.6851 72.2424 58.5853 72.2424C59.2788 72.2424 59.9837 72.0947 60.659 71.7891C63.17 70.6423 64.2771 67.6756 63.1271 65.162L46.4507 28.6278Z" fill="#EC75FF"/>
</svg>
